<svg xmlns="http://www.w3.org/2000/svg" width="40" height="40" viewBox="0 0 24 24" fill="#F39C12">
  <path d="M12 12c2.21 0 4-1.79 4-4s-1.79-4-4-4-4 1.79-4 4 1.79 4 4 4zm0 2c-2.67 0-8 1.34-8 4v2h16v-2c0-2.66-5.33-4-8-4z"/>
  <path d="M16 6c0-2.21-1.79-4-4-4S8 3.79 8 6s1.79 4 4 4 4-1.79 4-4zm-4 2c-1.1 0-2-.9-2-2s.9-2 2-2 2 .9 2 2-.9 2-2 2z"/>
  <path d="M3 18c0-2.66 5.33-4 8-4 .37 0 .8.03 1.25.08C9.83 14.8 8 16.22 8 18v2H3v-2zm9-4c-2.33 0-4.31.73-5.8 1.6C6.1 14.08 6 13.04 6 12V9c0-.55.45-1 1-1h1V6c0-2.21 1.79-4 4-4s4 1.79 4 4v2h1c.55 0 1 .45 1 1v3c0 1.04-.1 2.08-.2 3.6-1.49-.87-3.47-1.6-5.8-1.6z"/>
</svg> 