<svg xmlns="http://www.w3.org/2000/svg" width="40" height="40" viewBox="0 0 24 24" fill="#F39C12">
  <path d="M19 2H5c-1.1 0-2 .9-2 2v14c0 1.1.9 2 2 2h4l3 3 3-3h4c1.1 0 2-.9 2-2V4c0-1.1-.9-2-2-2zm-7 3.3c1.49 0 2.7 1.21 2.7 2.7 0 1.49-1.21 2.7-2.7 2.7-1.49 0-2.7-1.21-2.7-2.7 0-1.49 1.21-2.7 2.7-2.7zM18 16H6v-.9c0-2 4-3.1 6-3.1s6 1.1 6 3.1v.9z"/>
  <path d="M12.5 11.5c.17 0 .34-.02.5-.05.17.03.33.05.5.05 1.1 0 2-.9 2-2s-.9-2-2-2c-.17 0-.33.02-.5.05-.16-.03-.33-.05-.5-.05-1.1 0-2 .9-2 2s.9 2 2 2z"/>
  <path d="M12 8c.55 0 1 .45 1 1s-.45 1-1 1-1-.45-1-1 .45-1 1-1z"/>
</svg> 