<svg xmlns="http://www.w3.org/2000/svg" width="40" height="40"><rect width="100%" height="100%" fill="#2b2b31"/><path fill="none" stroke="#ecc94b" stroke-linecap="square" d="M10 4.124 4.155 9.987-4.124 10l-5.863-5.845L-10-4.124l5.845-5.863L4.124-10l5.863 5.845zm40 40-5.845 5.863-8.279.013-5.863-5.845L30 35.876l5.845-5.863L44.124 30l5.863 5.845zm-40 0-5.845 5.863-8.279.013-5.863-5.845-.013-8.279 5.845-5.863L4.124 30l5.863 5.845zm40-40-5.845 5.863-8.279.013-5.863-5.845L30-4.124l5.845-5.863L44.124-10l5.863 5.845z"/><path fill="none" stroke="#f44034" stroke-linecap="square" d="m30 24.124-5.845 5.863-8.279.013-5.863-5.845L10 15.876l5.845-5.863L24.124 10l5.863 5.845z"/></svg>